<svg width="1765" height="1765" viewBox="0 0 1765 1765" fill="none" xmlns="http://www.w3.org/2000/svg">
<path d="M521.114 186.854L886.108 1205.21H156.12L521.114 186.854Z" fill="#11916A"/>
<path d="M1239.46 186.854L1604.46 1205.21H874.468L1239.46 186.854Z" fill="#11916A"/>
<path d="M477.515 1104.51H564.713V1619.4H477.515V1104.51Z" fill="#11916A"/>
<path d="M1195.86 1104.51H1283.06V1619.4H1195.86V1104.51Z" fill="#11916A"/>
<path fill-rule="evenodd" clip-rule="evenodd" d="M882.364 1669.23C1316.94 1669.23 1669.23 1316.94 1669.23 882.364C1669.23 447.793 1316.94 95.503 882.364 95.503C447.793 95.503 95.503 447.793 95.503 882.364C95.503 1316.94 447.793 1669.23 882.364 1669.23ZM882.364 1764.73C1369.68 1764.73 1764.73 1369.68 1764.73 882.364C1764.73 395.048 1369.68 0 882.364 0C395.048 0 0 395.048 0 882.364C0 1369.68 395.048 1764.73 882.364 1764.73Z" fill="#11916A"/>
</svg>
